<?xml version="1.0" encoding="UTF-8" standalone="no"?>
<svg width="28px" height="28px" viewBox="0 0 28 28" version="1.1" xmlns="http://www.w3.org/2000/svg" xmlns:xlink="http://www.w3.org/1999/xlink" xmlns:sketch="http://www.bohemiancoding.com/sketch/ns">
    <!-- Generator: Sketch 3.2.2 (9983) - http://www.bohemiancoding.com/sketch -->
    <title>icon_arrow_up</title>
    <desc>Created with Sketch.</desc>
    <defs>
        <filter x="-50%" y="-50%" width="200%" height="200%" filterUnits="objectBoundingBox" id="filter-1">
            <feOffset dx="0" dy="1" in="SourceAlpha" result="shadowOffsetOuter1"></feOffset>
            <feGaussianBlur stdDeviation="0" in="shadowOffsetOuter1" result="shadowBlurOuter1"></feGaussianBlur>
            <feColorMatrix values="0 0 0 0 0.0196078431   0 0 0 0 0.0196078431   0 0 0 0 0.0901960784  0 0 0 0.07 0" in="shadowBlurOuter1" type="matrix" result="shadowMatrixOuter1"></feColorMatrix>
            <feMerge>
                <feMergeNode in="shadowMatrixOuter1"></feMergeNode>
                <feMergeNode in="SourceGraphic"></feMergeNode>
            </feMerge>
        </filter>
    </defs>
    <g id="Assets" stroke="none" stroke-width="1" fill="none" fill-rule="evenodd" sketch:type="MSPage">
        <g id="UI-Kit" sketch:type="MSArtboardGroup" transform="translate(-823.000000, -993.000000)">
            <g id="btn_to_top-2" sketch:type="MSLayerGroup" transform="translate(823.000000, 993.000000)">
                <g id="icon_arrow_up" sketch:type="MSShapeGroup">
                    <rect id="bound_16" fill-opacity="0.01" fill="#FFFFFF" x="0" y="0" width="28" height="28"></rect>
                    <path d="M6,9 C6,8.44771525 6.44463086,8 7.00087166,8 L20.9991283,8 C21.5518945,8 22,8.44386482 22,9 C22,9.55228475 21.5553691,10 20.9991283,10 L7.00087166,10 C6.4481055,10 6,9.55613518 6,9 Z M6,14 C6,13.4477153 6.44994876,13 7.00684547,13 L18.9931545,13 C19.5492199,13 20,13.4438648 20,14 C20,14.5522847 19.5500512,15 18.9931545,15 L7.00684547,15 C6.45078007,15 6,14.5561352 6,14 Z M6,19 C6,18.4477153 6.44463086,18 7.00087166,18 L20.9991283,18 C21.5518945,18 22,18.4438648 22,19 C22,19.5522847 21.5553691,20 20.9991283,20 L7.00087166,20 C6.4481055,20 6,19.5561352 6,19 Z" id="TV" fill="#303147" filter="url(#filter-1)"></path>
                </g>
            </g>
        </g>
    </g>
</svg>