<?xml version="1.0" encoding="UTF-8" standalone="no"?>
<svg width="28px" height="28px" viewBox="0 0 28 28" version="1.1" xmlns="https://www.w3.org/2000/svg" xmlns:xlink="https://www.w3.org/1999/xlink" xmlns:sketch="https://www.bohemiancoding.com/sketch/ns">
    <!-- Generator: Sketch 3.2.2 (9983) - https://www.bohemiancoding.com/sketch -->
    <title>icon_close 2</title>
    <desc>Created with Sketch.</desc>
    <defs>
        <filter x="-50%" y="-50%" width="200%" height="200%" filterUnits="objectBoundingBox" id="filter-1">
            <feOffset dx="0" dy="1" in="SourceAlpha" result="shadowOffsetOuter1"></feOffset>
            <feGaussianBlur stdDeviation="0" in="shadowOffsetOuter1" result="shadowBlurOuter1"></feGaussianBlur>
            <feColorMatrix values="0 0 0 0 0.0196078431   0 0 0 0 0.0196078431   0 0 0 0 0.0901960784  0 0 0 0.07 0" in="shadowBlurOuter1" type="matrix" result="shadowMatrixOuter1"></feColorMatrix>
            <feMerge>
                <feMergeNode in="shadowMatrixOuter1"></feMergeNode>
                <feMergeNode in="SourceGraphic"></feMergeNode>
            </feMerge>
        </filter>
    </defs>
    <g id="Assets" stroke="none" stroke-width="1" fill="none" fill-rule="evenodd" sketch:type="MSPage">
        <g id="UI-Kit" sketch:type="MSArtboardGroup" transform="translate(-873.000000, -1023.000000)">
            <g id="icon_close-2" sketch:type="MSLayerGroup" transform="translate(873.000000, 1023.000000)">
                <rect id="bound_16" fill-opacity="0.01" fill="#FFFFFF" sketch:type="MSShapeGroup" x="0" y="0" width="28" height="28"></rect>
                <path d="M14,12.5740436 L9.72275218,8.29679575 C9.32616461,7.90020818 8.68994127,7.90240728 8.29617427,8.29617427 C7.89966201,8.69268654 7.90268552,9.32864195 8.29679575,9.72275218 L12.5740436,14 L8.29679575,18.2772478 C7.90020818,18.6738354 7.90240728,19.3100587 8.29617427,19.7038257 C8.69268654,20.100338 9.32864195,20.0973145 9.72275218,19.7032043 L14,15.4259564 L18.2772478,19.7032043 C18.6738354,20.0997918 19.3100587,20.0975927 19.7038257,19.7038257 C20.100338,19.3073135 20.0973145,18.671358 19.7032043,18.2772478 L15.4259564,14 L19.7032043,9.72275218 C20.0997918,9.32616461 20.0975927,8.68994127 19.7038257,8.29617427 C19.3073135,7.89966201 18.671358,7.90268552 18.2772478,8.29679575 L14,12.5740436 Z" id="icon_close" fill="#303147" filter="url(#filter-1)" sketch:type="MSShapeGroup"></path>
            </g>
        </g>
    </g>
</svg>